<svg xmlns="http://www.w3.org/2000/svg" viewBox="0 0 32 32" class="BlanketIcon-sc-125bz2i-0 jLpmuc"><path fill="#4A4A4A" d="M28.676 6.238a3.557 3.557 0 00.914-2.354c0-1.883-1.485-3.472-3.37-3.472H8.169C3.656.412 0 4.178 0 8.828c0 4.649 3.656 8.415 8.169 8.415h19.536c2.97 0 5.37-2.472 5.37-5.532a5.42 5.42 0 00-4.399-5.473zm-2.526 9.006H8.505a6.323 6.323 0 01-6.328-6.328A6.323 6.323 0 018.505 2.59H24.76c1.08 0 2.024.38 2.024 1.511 0 1.08-.893 1.502-2.024 1.502H8.04c-.65.052-1.81.483-2.496 1.21-.668.707-.87 1.701-.87 2.362 0 .658.249 1.732.87 2.41.738.805 1.92 1.162 2.702 1.162H25.32c.214-.085.362-.178.445-.277.24-.29.266-.622.266-.77 0-.141-.053-.569-.266-.758-.087-.076-.235-.151-.445-.224H8.3a1.516 1.516 0 01-1.544-1.543c0-.875.67-1.544 1.544-1.544h17.85a3.798 3.798 0 013.807 3.807 3.798 3.798 0 01-3.806 3.807z"></path></svg>