

<svg xmlns="http://www.w3.org/2000/svg" viewBox="0 0 32 32" class="ChargingpointIcon-sc-14kc0dj-0 kjDZXO"><path fill-opacity="0.7" d="M12.451 21.594C5.47 20.988 0 15.084 0 7.902v-1.03h27.273v1.03c0 7.287-5.632 13.26-12.76 13.715.004.045.005.091.005.137v6.872c0 .759-.464 1.374-1.037 1.374-.572 0-1.037-.615-1.037-1.374v-6.872c0-.054.003-.108.007-.16zM5.594 1.03c0-.57.47-1.03 1.05-1.03.579 0 1.048.461 1.048 1.03v3.522c0 .57-.47 1.03-1.049 1.03a1.04 1.04 0 01-1.049-1.03V1.031zm8.042 18.553c6.024 0 10.979-4.677 11.495-10.651H2.142c.516 5.974 5.47 10.65 11.494 10.65zM19.58 1.03c0-.57.47-1.03 1.05-1.03.579 0 1.048.461 1.048 1.03v3.522c0 .57-.47 1.03-1.049 1.03a1.04 1.04 0 01-1.049-1.03V1.031zM9.847 15.643c.52.234.75.838.511 1.35a1.046 1.046 0 01-1.374.504c-2.118-.95-3.731-2.674-4.83-5.123a1.013 1.013 0 01.532-1.344 1.043 1.043 0 011.367.52c.902 2.014 2.164 3.362 3.794 4.093z"></path></svg>