<svg xmlns="http://www.w3.org/2000/svg" viewBox="0 0 32 32" class="EmergencyContactIcon-sc-il2hh3-0 eaUNMV"><g fill="#4A4A4A" fill-rule="evenodd"><path d="M16.108 3.86c0 2.129 1.72 3.86 3.835 3.86s3.835-1.731 3.835-3.86c0-2.128-1.72-3.86-3.835-3.86s-3.835 1.732-3.835 3.86zm6.136 0a2.311 2.311 0 01-2.3 2.316 2.311 2.311 0 01-2.302-2.316 2.311 2.311 0 012.301-2.316 2.311 2.311 0 012.301 2.316zm-2.397 4.633c-3.924 0-6.999 1.992-6.999 4.536v1.254a.77.77 0 00.767.772H26.08a.77.77 0 00.767-.772V13.03c0-2.544-3.075-4.536-7-4.536zm5.465 5.018h-10.93v-.483c0-1.621 2.503-2.992 5.465-2.992 2.963 0 5.465 1.371 5.465 2.993v.482z"></path><path d="M13.385 26.767a7.462 7.462 0 003.774 1.027c2 0 3.881-.784 5.296-2.208a7.162 7.162 0 002.09-5.08v-.432a.772.772 0 00-.497-.723l-6.137-2.317a.763.763 0 00-.811.177l-1.852 1.864a26.813 26.813 0 01-6.585-6.629l1.851-1.863a.776.776 0 00.176-.817L8.389 3.589a.767.767 0 00-.719-.5h-.428c-1.907 0-3.7.747-5.048 2.104A7.515 7.515 0 000 10.523a7.59 7.59 0 001.02 3.799 34.533 34.533 0 0012.365 12.445zM1.535 10.523c0-1.6.619-3.106 1.744-4.239a5.55 5.55 0 013.86-1.651l1.941 5.21-1.952 1.964a.776.776 0 00-.096.974 28.37 28.37 0 007.883 7.935c.305.204.71.163.968-.097l1.952-1.965 5.175 1.954a5.62 5.62 0 01-1.64 3.886 5.896 5.896 0 01-4.212 1.756 5.933 5.933 0 01-3-.817 32.989 32.989 0 01-11.813-11.89 6.032 6.032 0 01-.81-3.02z"></path></g></svg>
